<svg id="Camada_1" data-name="Camada 1" xmlns="http://www.w3.org/2000/svg" viewBox="0 0 1000 1000"><defs><style>.cls-1{fill:#777d45;}</style></defs><path class="cls-1" d="M659.67,422.29V301.74H579.45a111.9,111.9,0,0,0-33.62,5.07c-28.48,8.95-46.6,36.89-46.6,36.89h0s-18.06-27.92-46.6-36.89A112,112,0,0,0,419,301.74H338.78V541.55H419a112,112,0,0,1,33.63,5.08c28.54,9,46.6,35,46.6,35h0s15.93-22.93,41.38-33.16q-.2-3.45-.2-7A119.4,119.4,0,0,1,659.67,422.29Z"/><path class="cls-1" d="M630.44,541.55h29.23V512.12A29.36,29.36,0,0,0,630.44,541.55Z"/><path class="cls-1" d="M593.31,541.55h21.35a45.16,45.16,0,0,1,45-45.21V475.19A66.44,66.44,0,0,0,593.31,541.55Z"/><path class="cls-1" d="M556.19,541.55c0,.8,0,1.6,0,2.39a113.75,113.75,0,0,1,21.31-2.35v0a82.24,82.24,0,0,1,82.14-82.14V438.07A103.6,103.6,0,0,0,556.19,541.55Z"/><path class="cls-1" d="M292,672.65q15.82,0,27.87,6.07a43.56,43.56,0,0,1,18.87,18.45q6.81,12.38,6.82,31.32v74H322.14V731.16q0-18.7-9.13-28.17t-25.68-9.47q-12.42,0-21.67,4.86a33.32,33.32,0,0,0-14.24,14.32q-5,9.48-5,23.55v66.28H223.06V622.39h23.37v86.19l-4.62-9.23a44.71,44.71,0,0,1,19.47-19.66Q274.42,672.64,292,672.65Z"/><path class="cls-1" d="M668.53,672.65q15.57,0,27.5,6.07a43,43,0,0,1,18.62,18.45q6.71,12.38,6.7,31.32v74H698V731.16q0-18.7-8.76-28.17t-24.59-9.47a41.62,41.62,0,0,0-20.45,4.86,32.66,32.66,0,0,0-13.51,14.32q-4.74,9.48-4.74,23.55v66.28H602.56V731.16q0-18.7-8.64-28.17t-24.71-9.47A41.11,41.11,0,0,0,549,698.38a33.37,33.37,0,0,0-13.63,14.32q-4.87,9.48-4.87,23.55v66.28H507.14V673.86h22.39v34.23l-3.65-8.74a43.88,43.88,0,0,1,18.74-19.66q12.66-7.05,29.46-7,18.49,0,31.88,9.1t17.53,27.56L614,705.42q5.84-14.8,20.45-23.79T668.53,672.65Z"/><path class="cls-1" d="M153.31,804a105.29,105.29,0,0,1-30.55-4.37q-14.49-4.36-22.76-10.68l9.74-18.45A79.6,79.6,0,0,0,130.18,780,81.21,81.21,0,0,0,155,783.84q16.31,0,23.49-4.61a14.51,14.51,0,0,0,7.19-12.87,11.29,11.29,0,0,0-4.39-9.47,29.93,29.93,0,0,0-11.56-5.1q-7.19-1.69-15.94-3t-17.53-3.4a70.15,70.15,0,0,1-16.07-5.83,30.38,30.38,0,0,1-11.68-10.44q-4.38-6.68-4.38-17.84a33,33,0,0,1,6.57-20.4q6.57-8.73,18.62-13.47t28.6-4.74a113.2,113.2,0,0,1,25.69,3q13,3,21.3,8.62l-10,18.45a55.24,55.24,0,0,0-18.26-8,84.25,84.25,0,0,0-19-2.19q-15.33,0-22.88,5t-7.55,12.75q0,6.56,4.51,10.07a32.42,32.42,0,0,0,11.68,5.46,143.53,143.53,0,0,0,16,3.28q8.76,1.33,17.52,3.4a71.46,71.46,0,0,1,16,5.71,30.84,30.84,0,0,1,11.68,10.19q4.5,6.55,4.5,17.48A31.22,31.22,0,0,1,202.24,786q-6.83,8.51-19.23,13.24T153.31,804Z"/><path class="cls-1" d="M782.71,804q-14.36,0-25.19-4.86a38.58,38.58,0,0,1-16.68-13.47A34,34,0,0,1,735,766.12a36.69,36.69,0,0,1,5-18.94q5-8.49,16.31-13.6t30.55-5.09h40.9v16.75H787.83q-17.54,0-23.62,5.82a18.78,18.78,0,0,0-6.08,14.08,18.08,18.08,0,0,0,7.54,15.18q7.55,5.7,20.94,5.71,13.14,0,23-5.83a33.14,33.14,0,0,0,14.24-17l4.63,16q-4.63,11.41-16.31,18.08T782.71,804Zm42.36-1.46V775.34l-1.22-5.1V723.87q0-14.8-8.64-22.94t-25.92-8.13a68.44,68.44,0,0,0-22.4,3.76,57.75,57.75,0,0,0-18.5,10.08l-9.74-17.48a70.66,70.66,0,0,1,24-12.27A100.51,100.51,0,0,1,792,672.65q26.53,0,40.9,12.86t14.36,39.33v77.69Z"/><path class="cls-1" d="M852.06,745.41c-3.38,0-6.37-.13-8.75-.24-1,0-1.94-.09-2.7-.1H795.2V728.52h45.62c1,0,2.06.07,3.22.12,9.77.42,32.69,1.44,42.63-12.07L900,726.38C887.72,743.06,866.36,745.41,852.06,745.41Z"/><path class="cls-1" d="M480.1,768.06a45.46,45.46,0,0,1-16.43,11.65,53.84,53.84,0,0,1-20.81,3.89A52.34,52.34,0,0,1,418.27,778a40.84,40.84,0,0,1-16.67-15.66,42.08,42.08,0,0,1-5.21-14.2h40q19.23,0,30.55-5.1t16.31-13.59a36.69,36.69,0,0,0,5-18.94A34,34,0,0,0,482.35,691a38.58,38.58,0,0,0-16.67-13.48q-10.83-4.86-25.19-4.85c-.59,0-1.15,0-1.73,0-.42,0-.83,0-1.26,0A66,66,0,0,0,404.28,681a60.55,60.55,0,0,0-23.13,23.19q-8.4,14.81-8.4,34t8.65,34a61.2,61.2,0,0,0,24.34,23.3q15.7,8.5,36.39,8.5a76,76,0,0,0,29.09-5.34A56.57,56.57,0,0,0,493,783.11Zm-15-56.57c0,12.8-9.44,19.91-29.7,19.91H395.86A44.79,44.79,0,0,1,401,713.07a38.48,38.48,0,0,1,14.85-15.29,42.43,42.43,0,0,1,20.77-5.42C454.4,692.06,465.07,700.66,465.07,711.49Z"/><path class="cls-1" d="M338.2,759.64l-13.33-9.81c15.19-20.62,44.27-19.34,56.7-18.79,1,.05,1.94.09,2.69.11l-.4,16.54c-.85,0-1.87-.06-3-.11C371.06,747.14,348.15,746.13,338.2,759.64Z"/></svg>