<svg id="Camada_1" data-name="Camada 1" xmlns="http://www.w3.org/2000/svg" viewBox="0 0 1000 1000"><defs><style>.cls-1{fill:#be4a01;}</style></defs><path class="cls-1" d="M319.15,598.42V576.81h2.53l9.69,16.33H330l9.56-16.33h2.53l0,21.61h-3l0-16.95h.71l-8.52,14.32h-1.42l-8.58-14.32h.78v16.95Z"/><path class="cls-1" d="M357.27,598.66a9.06,9.06,0,0,1-6.7-2.43q-2.44-2.44-2.44-7.13V576.81h3.09V589q0,3.62,1.59,5.28a6.91,6.91,0,0,0,9,0q1.59-1.66,1.59-5.28V576.81h3V589.1q0,4.68-2.42,7.13A9.06,9.06,0,0,1,357.27,598.66Z"/><path class="cls-1" d="M372.42,598.42V576.81h3.09v18.92H387.2v2.69Z"/><path class="cls-1" d="M392.73,598.42V579.5h-7.41v-2.69h17.87v2.69h-7.41v18.92Z"/><path class="cls-1" d="M406.25,598.42V576.81h3.08v21.61Z"/><path class="cls-1" d="M415.5,598.42V576.81H418l9.7,16.33h-1.36l9.57-16.33h2.53l0,21.61h-3l0-16.95h.71l-8.52,14.32h-1.41l-8.58-14.32h.77v16.95Z"/><path class="cls-1" d="M454.42,598.66a12.27,12.27,0,0,1-4.58-.83,10.78,10.78,0,0,1-6.07-5.83,11.61,11.61,0,0,1,0-8.77,10.9,10.9,0,0,1,2.41-3.5,11,11,0,0,1,3.64-2.33,12.26,12.26,0,0,1,4.6-.83,12.58,12.58,0,0,1,4.57.81,10.85,10.85,0,0,1,3.64,2.32,10.42,10.42,0,0,1,2.39,3.52,11.84,11.84,0,0,1,0,8.81,10.43,10.43,0,0,1-2.39,3.5,10.85,10.85,0,0,1-3.64,2.32A12.58,12.58,0,0,1,454.42,598.66Zm0-2.74a8.92,8.92,0,0,0,3.35-.62,7.83,7.83,0,0,0,2.65-1.74,8.09,8.09,0,0,0,1.76-2.64,8.51,8.51,0,0,0,.63-3.3,8.23,8.23,0,0,0-2.39-5.93,7.73,7.73,0,0,0-2.65-1.76,9.28,9.28,0,0,0-6.67,0,7.91,7.91,0,0,0-2.67,1.76,8.17,8.17,0,0,0-1.77,2.64,8.39,8.39,0,0,0-.63,3.29,8.51,8.51,0,0,0,.63,3.3,8,8,0,0,0,4.44,4.38A8.83,8.83,0,0,0,454.39,595.92Z"/><path class="cls-1" d="M470.28,598.42V576.81h9.11a13.2,13.2,0,0,1,6.09,1.36,10.07,10.07,0,0,1,4.11,3.8,11.64,11.64,0,0,1,0,11.29,10.07,10.07,0,0,1-4.11,3.8,13.2,13.2,0,0,1-6.09,1.36Zm3.09-2.69h5.83a10,10,0,0,0,4.65-1,7.47,7.47,0,0,0,3-2.85,8.9,8.9,0,0,0,0-8.5,7.45,7.45,0,0,0-3-2.84,10,10,0,0,0-4.65-1h-5.83Z"/><path class="cls-1" d="M491.89,598.42l9.78-21.61h3.06l9.81,21.61H511.3l-8.73-19.88h1.23l-8.73,19.88Zm4.16-5.4.84-2.47h12.16l.89,2.47Z"/><path class="cls-1" d="M517.44,598.42V576.81h3.09v18.92h11.69v2.69Z"/><path class="cls-1" d="M544.47,598.42V576.81h9.69a9.44,9.44,0,0,1,5.74,1.5,4.83,4.83,0,0,1,2,4.09,5.25,5.25,0,0,1-.79,3,5.19,5.19,0,0,1-2.11,1.85,6.36,6.36,0,0,1-2.87.65l.55-.92a7.87,7.87,0,0,1,3.28.64,5.42,5.42,0,0,1,2.25,1.9,5.53,5.53,0,0,1,.83,3.1,5,5,0,0,1-2.08,4.31q-2.09,1.53-6.19,1.53Zm3.09-2.5h7.1a7.32,7.32,0,0,0,3.92-.87,3,3,0,0,0,1.35-2.71,3,3,0,0,0-1.35-2.75,7.33,7.33,0,0,0-3.92-.86h-7.38v-2.5h6.61a6.51,6.51,0,0,0,3.64-.87,3.25,3.25,0,0,0,0-5.18,6.51,6.51,0,0,0-3.64-.87h-6.33Z"/><path class="cls-1" d="M567.53,598.42V576.81h3.08v21.61Z"/><path class="cls-1" d="M576.79,598.42V576.81h9.69a9.48,9.48,0,0,1,5.74,1.5,4.84,4.84,0,0,1,2,4.09,5.33,5.33,0,0,1-.78,3,5.22,5.22,0,0,1-2.12,1.85,6.33,6.33,0,0,1-2.87.65l.56-.92a7.85,7.85,0,0,1,3.27.64,5.36,5.36,0,0,1,2.25,1.9,5.45,5.45,0,0,1,.83,3.1,5,5,0,0,1-2.08,4.31q-2.09,1.53-6.19,1.53Zm3.08-2.5H587a7.3,7.3,0,0,0,3.92-.87,3,3,0,0,0,1.36-2.71,3,3,0,0,0-1.36-2.75,7.31,7.31,0,0,0-3.92-.86h-7.38v-2.5h6.61a6.49,6.49,0,0,0,3.64-.87,3.23,3.23,0,0,0,0-5.18,6.49,6.49,0,0,0-3.64-.87h-6.33Z"/><path class="cls-1" d="M599.84,598.42V576.81h3.09v18.92h11.69v2.69Z"/><path class="cls-1" d="M621,595.73h12.59v2.69H617.86V576.81h15.25v2.69H621Zm-.28-9.6h11.11v2.63H620.67Z"/><path class="cls-1" d="M651,598.42V579.5h-7.41v-2.69h17.87v2.69h-7.4v18.92Z"/><path class="cls-1" d="M664.54,598.42V576.81H673a11.8,11.8,0,0,1,4.85.9,6.88,6.88,0,0,1,3.09,2.59,7.37,7.37,0,0,1,1.08,4,7.28,7.28,0,0,1-1.08,4,6.93,6.93,0,0,1-3.09,2.58,11.8,11.8,0,0,1-4.85.89h-6.72l1.39-1.42v8Zm3.09-7.69-1.39-1.51h6.63a6.85,6.85,0,0,0,4.49-1.28,5,5,0,0,0,0-7.18,6.91,6.91,0,0,0-4.49-1.26h-6.63l1.39-1.54ZM679,598.42l-5.49-7.84h3.3l5.56,7.84Z"/><path class="cls-1" d="M683.4,598.42l9.78-21.61h3.05l9.82,21.61h-3.24l-8.74-19.88h1.24l-8.74,19.88Zm4.16-5.4.84-2.47h12.16l.89,2.47Z"/><path class="cls-1" d="M709,598.42V576.81h2.53l14.29,17.75h-1.33V576.81h3.09v21.61H725l-14.29-17.75H712v17.75Z"/><path class="cls-1" d="M740,598.66a14.92,14.92,0,0,1-4.73-.75,9.73,9.73,0,0,1-3.54-2l1.14-2.41a9.89,9.89,0,0,0,3.15,1.79,11.39,11.39,0,0,0,4,.71,8.94,8.94,0,0,0,3-.43,3.68,3.68,0,0,0,1.73-1.19,2.8,2.8,0,0,0,.56-1.71,2.35,2.35,0,0,0-.73-1.79,5.28,5.28,0,0,0-1.88-1.1,19.42,19.42,0,0,0-2.55-.72c-.92-.21-1.86-.45-2.79-.73a12.6,12.6,0,0,1-2.56-1.06,5.32,5.32,0,0,1-1.87-1.75,5.13,5.13,0,0,1-.71-2.82,5.63,5.63,0,0,1,.88-3.07,6,6,0,0,1,2.72-2.25,11.08,11.08,0,0,1,4.67-.85,14.44,14.44,0,0,1,3.74.49,10.47,10.47,0,0,1,3.21,1.42l-1,2.47a9.79,9.79,0,0,0-2.93-1.34,11.42,11.42,0,0,0-3-.42,8.2,8.2,0,0,0-3,.46,3.58,3.58,0,0,0-1.71,1.24,2.88,2.88,0,0,0-.55,1.73,2.4,2.4,0,0,0,.73,1.82,5.25,5.25,0,0,0,1.88,1.08,25.53,25.53,0,0,0,2.55.72c.92.22,1.86.46,2.79.73a11.08,11.08,0,0,1,2.56,1,5.16,5.16,0,0,1,1.87,1.72,5,5,0,0,1,.71,2.78,5.59,5.59,0,0,1-.89,3,6.22,6.22,0,0,1-2.77,2.26A11.46,11.46,0,0,1,740,598.66Z"/><path class="cls-1" d="M752.56,598.42V576.81h3.08v18.92h11.7v2.69Z"/><path class="cls-1" d="M767.31,598.42l9.78-21.61h3.06L790,598.42h-3.24L778,578.54h1.23l-8.73,19.88Zm4.17-5.4.83-2.47h12.16l.89,2.47Z"/><path class="cls-1" d="M796.07,598.42V579.5h-7.4v-2.69h17.87v2.69h-7.41v18.92Z"/><path class="cls-1" d="M809.59,598.42V576.81h3.09v21.61Z"/><path class="cls-1" d="M828.6,598.66a12.3,12.3,0,0,1-4.58-.83A10.78,10.78,0,0,1,818,592a11.61,11.61,0,0,1,0-8.77,10.9,10.9,0,0,1,2.41-3.5A11,11,0,0,1,824,577.4a12.3,12.3,0,0,1,4.6-.83,12.58,12.58,0,0,1,4.57.81,10.85,10.85,0,0,1,3.64,2.32,10.42,10.42,0,0,1,2.39,3.52,11.84,11.84,0,0,1,0,8.81,10.43,10.43,0,0,1-2.39,3.5,10.85,10.85,0,0,1-3.64,2.32A12.58,12.58,0,0,1,828.6,598.66Zm0-2.74a8.92,8.92,0,0,0,3.35-.62,7.83,7.83,0,0,0,2.65-1.74,8.09,8.09,0,0,0,1.76-2.64,8.51,8.51,0,0,0,.64-3.3,8.39,8.39,0,0,0-.64-3.29,8.31,8.31,0,0,0-1.76-2.64,7.73,7.73,0,0,0-2.65-1.76,9.28,9.28,0,0,0-6.67,0,8,8,0,0,0-2.67,1.76,8.17,8.17,0,0,0-1.77,2.64,8.39,8.39,0,0,0-.63,3.29,8.51,8.51,0,0,0,.63,3.3,8,8,0,0,0,1.77,2.64,8.11,8.11,0,0,0,2.67,1.74A8.83,8.83,0,0,0,828.57,595.92Z"/><path class="cls-1" d="M844.47,598.42V576.81H847l14.29,17.75H860V576.81H863v21.61h-2.53l-14.29-17.75h1.33v17.75Z"/><path class="cls-1" d="M456.14,438a44.73,44.73,0,0,1,20.35,4.43,31.94,31.94,0,0,1,13.77,13.47q5,9,5,22.86v54.06H478.17V480.73q0-13.64-6.66-20.56t-18.75-6.91A33.46,33.46,0,0,0,437,456.81a24.29,24.29,0,0,0-10.4,10.45q-3.65,6.92-3.64,17.19v48.39H405.85V401.34h17.06v62.91l-3.38-6.74a32.68,32.68,0,0,1,14.22-14.35Q443.35,438,456.14,438Z"/><path class="cls-1" d="M731,438a43.75,43.75,0,0,1,20.08,4.43,31.55,31.55,0,0,1,13.59,13.47q4.89,9,4.89,22.86v54.06H752.53V480.73q0-13.64-6.4-20.56t-17.94-6.91a30.22,30.22,0,0,0-14.93,3.55,23.78,23.78,0,0,0-9.86,10.45q-3.46,6.92-3.47,17.19v48.39H682.87V480.73q0-13.64-6.3-20.56t-18-6.91a29.87,29.87,0,0,0-14.75,3.55,24.31,24.31,0,0,0-9.95,10.45q-3.55,6.92-3.55,17.19v48.39H613.22V438.91h16.35v25l-2.67-6.38a32.08,32.08,0,0,1,13.68-14.35,43.48,43.48,0,0,1,21.5-5.14q13.51,0,23.28,6.65t12.8,20.11L691.23,462a35.28,35.28,0,0,1,14.92-17.37Q716.82,438,731,438Z"/><path class="cls-1" d="M354.93,533.9a77.07,77.07,0,0,1-22.3-3.19q-10.58-3.19-16.61-7.8l7.11-13.47a58.14,58.14,0,0,0,14.92,6.91,59.35,59.35,0,0,0,18.13,2.84q11.9,0,17.15-3.37a10.58,10.58,0,0,0,5.24-9.39,8.26,8.26,0,0,0-3.2-6.91,21.66,21.66,0,0,0-8.44-3.72q-5.25-1.24-11.64-2.22T342.5,491.1a50.31,50.31,0,0,1-11.73-4.26,22,22,0,0,1-8.53-7.62c-2.13-3.24-3.2-7.59-3.2-13a24.1,24.1,0,0,1,4.8-14.89,30.4,30.4,0,0,1,13.59-9.83q8.81-3.47,20.88-3.46a82.29,82.29,0,0,1,18.75,2.22,46.53,46.53,0,0,1,15.55,6.29L385.32,460A40.12,40.12,0,0,0,372,454.15a61.24,61.24,0,0,0-13.86-1.6q-11.19,0-16.7,3.64t-5.51,9.3a8.78,8.78,0,0,0,3.29,7.35,23.56,23.56,0,0,0,8.53,4,102.08,102.08,0,0,0,11.64,2.39c4.26.66,8.53,1.48,12.79,2.49a51.89,51.89,0,0,1,11.64,4.16,22.55,22.55,0,0,1,8.53,7.44q3.29,4.79,3.29,12.76a22.75,22.75,0,0,1-5,14.71q-5,6.21-14,9.66T354.93,533.9Z"/><path class="cls-1" d="M814.38,533.9A44.47,44.47,0,0,1,796,530.35a28.17,28.17,0,0,1-12.17-9.83,24.85,24.85,0,0,1-4.26-14.27,26.75,26.75,0,0,1,3.64-13.82q3.64-6.21,11.9-9.93t22.3-3.72h29.86V491H818.12q-12.79,0-17.24,4.25a13.73,13.73,0,0,0-4.44,10.28A13.18,13.18,0,0,0,802,516.62q5.5,4.17,15.28,4.16A32.36,32.36,0,0,0,834,516.53a24.21,24.21,0,0,0,10.39-12.4l3.38,11.69A26.46,26.46,0,0,1,835.88,529Q827.36,533.91,814.38,533.9Zm30.92-1.06V513l-.89-3.73V475.41q0-10.8-6.3-16.74t-18.93-5.94a50,50,0,0,0-16.35,2.75,42.11,42.11,0,0,0-13.5,7.35l-7.11-12.76a51.57,51.57,0,0,1,17.5-8.95,73.63,73.63,0,0,1,21.42-3.1q19.36,0,29.85,9.39t10.48,28.71v56.72Z"/><path class="cls-1" d="M865,491.14c-2.48,0-4.66-.1-6.39-.18l-2-.07H823.5V478.81h33.3c.76,0,1.5.05,2.35.08,7.13.31,23.86,1.06,31.12-8.81l9.73,7.17C891,489.42,875.44,491.13,865,491.14Z"/><path class="cls-1" d="M593.49,507.67a33.36,33.36,0,0,1-12,8.51A39.3,39.3,0,0,1,566.3,519a38.36,38.36,0,0,1-17.95-4.07,29.9,29.9,0,0,1-12.17-11.43,30.56,30.56,0,0,1-3.8-10.37h29.16q14,0,22.31-3.72t11.9-9.93a26.75,26.75,0,0,0,3.64-13.82,24.87,24.87,0,0,0-4.26-14.27A28.17,28.17,0,0,0,583,441.57,44.47,44.47,0,0,0,564.57,438c-.43,0-.84,0-1.26,0s-.61,0-.92,0a48.28,48.28,0,0,0-24.26,6.11,44.28,44.28,0,0,0-16.88,16.93,49.5,49.5,0,0,0-6.13,24.81,48.33,48.33,0,0,0,6.31,24.81,44.83,44.83,0,0,0,17.77,17q11.46,6.19,26.57,6.2A55.49,55.49,0,0,0,587,530a41.21,41.21,0,0,0,15.9-11.34Zm-11-41.29c0,9.34-6.89,14.53-21.68,14.53H532a32.75,32.75,0,0,1,3.75-13.38,28,28,0,0,1,10.84-11.17,31,31,0,0,1,15.16-3.95C574.73,452.19,582.51,458.47,582.51,466.38Z"/><path class="cls-1" d="M489.9,501.53l-9.73-7.17c11.09-15.05,32.32-14.11,41.39-13.71l2,.08-.29,12.07c-.62,0-1.36-.05-2.21-.08C513.89,492.4,497.16,491.66,489.9,501.53Z"/><path class="cls-1" d="M275.32,467.2V401.34H231.49a61,61,0,0,0-18.37,2.77c-15.56,4.89-25.46,20.15-25.46,20.15h0S177.8,409,162.2,404.11a61,61,0,0,0-18.37-2.77H100v131h43.83a61.32,61.32,0,0,1,18.37,2.77c15.6,4.9,25.46,19.14,25.46,19.14h0s8.7-12.52,22.61-18.12c-.07-1.25-.11-2.52-.11-3.79A65.23,65.23,0,0,1,275.32,467.2Z"/><path class="cls-1" d="M259.35,532.36h16V516.28A16,16,0,0,0,259.35,532.36Z"/><path class="cls-1" d="M239.06,532.36h11.67a24.67,24.67,0,0,1,24.59-24.7V496.1A36.31,36.31,0,0,0,239.06,532.36Z"/><path class="cls-1" d="M218.78,532.36c0,.44,0,.87,0,1.31a61.52,61.52,0,0,1,11.64-1.29v0a44.93,44.93,0,0,1,44.88-44.88V475.82A56.6,56.6,0,0,0,218.78,532.36Z"/></svg>