<svg id="Camada_1" data-name="Camada 1" xmlns="http://www.w3.org/2000/svg" viewBox="0 0 1000 1000"><defs><style>.cls-1{fill:#be4a01;}</style></defs><path class="cls-1" d="M659.67,369.42V248.87H579.45A111.89,111.89,0,0,0,545.83,254c-28.48,8.95-46.6,36.88-46.6,36.88h0s-18.06-27.91-46.6-36.88A112,112,0,0,0,419,248.87H338.78V488.69H419a111.69,111.69,0,0,1,33.63,5.08c28.54,9,46.6,35,46.6,35h0s15.93-22.92,41.38-33.16q-.2-3.45-.2-6.94A119.4,119.4,0,0,1,659.67,369.42Z"/><path class="cls-1" d="M630.44,488.69h29.23V459.26A29.36,29.36,0,0,0,630.44,488.69Z"/><path class="cls-1" d="M593.31,488.69h21.35a45.16,45.16,0,0,1,45-45.21V422.33A66.44,66.44,0,0,0,593.31,488.69Z"/><path class="cls-1" d="M556.19,488.69c0,.8,0,1.59,0,2.39a112.11,112.11,0,0,1,21.31-2.35v0a82.24,82.24,0,0,1,82.14-82.14V385.2A103.6,103.6,0,0,0,556.19,488.69Z"/><path class="cls-1" d="M292,619.78q15.82,0,27.87,6.07a43.67,43.67,0,0,1,18.87,18.45q6.81,12.39,6.82,31.32v74H322.14V678.29q0-18.69-9.13-28.16t-25.68-9.47q-12.42,0-21.67,4.86a33.32,33.32,0,0,0-14.24,14.32q-5,9.46-5,23.55v66.28H223.06V569.53h23.37v86.18l-4.62-9.22a44.73,44.73,0,0,1,19.47-19.67Q274.42,619.79,292,619.78Z"/><path class="cls-1" d="M668.53,619.78q15.57,0,27.5,6.07a43.12,43.12,0,0,1,18.62,18.45q6.71,12.39,6.7,31.32v74H698V678.29q0-18.69-8.76-28.16t-24.59-9.47a41.51,41.51,0,0,0-20.45,4.86,32.66,32.66,0,0,0-13.51,14.32q-4.74,9.46-4.74,23.55v66.28H602.56V678.29q0-18.69-8.64-28.16t-24.71-9.47A41,41,0,0,0,549,645.52a33.37,33.37,0,0,0-13.63,14.32q-4.87,9.46-4.87,23.55v66.28H507.14V621h22.39v34.24l-3.65-8.74a43.9,43.9,0,0,1,18.74-19.67q12.66-7,29.46-7,18.49,0,31.88,9.11t17.53,27.55L614,652.56q5.84-14.8,20.45-23.79T668.53,619.78Z"/><path class="cls-1" d="M153.31,751.13a105.29,105.29,0,0,1-30.55-4.37q-14.49-4.38-22.76-10.69l9.74-18.45a79.61,79.61,0,0,0,20.44,9.47A81.2,81.2,0,0,0,155,731q16.31,0,23.49-4.61a14.49,14.49,0,0,0,7.19-12.87A11.27,11.27,0,0,0,181.3,704a29.78,29.78,0,0,0-11.56-5.1q-7.19-1.7-15.94-3t-17.53-3.4a69.67,69.67,0,0,1-16.07-5.82,30.38,30.38,0,0,1-11.68-10.44q-4.38-6.68-4.38-17.85A33,33,0,0,1,110.71,638q6.57-8.75,18.62-13.48t28.6-4.73a112.64,112.64,0,0,1,25.69,3q13,3,21.3,8.61l-10,18.46a55.27,55.27,0,0,0-18.26-8,84.81,84.81,0,0,0-19-2.18q-15.33,0-22.88,5t-7.55,12.74q0,6.55,4.51,10.08A32.42,32.42,0,0,0,143.45,673a143.53,143.53,0,0,0,16,3.28q8.76,1.34,17.52,3.4a71,71,0,0,1,16,5.7,31,31,0,0,1,11.68,10.2q4.5,6.56,4.5,17.48a31.22,31.22,0,0,1-6.81,20.15q-6.83,8.51-19.23,13.23T153.31,751.13Z"/><path class="cls-1" d="M782.71,751.13q-14.36,0-25.19-4.86a38.65,38.65,0,0,1-16.68-13.47A34.07,34.07,0,0,1,735,713.25a36.65,36.65,0,0,1,5-18.93q5-8.51,16.31-13.6t30.55-5.1h40.9v16.75H787.83q-17.54,0-23.62,5.83a18.76,18.76,0,0,0-6.08,14.08,18.09,18.09,0,0,0,7.54,15.18q7.55,5.7,20.94,5.7,13.14,0,23-5.83a33.08,33.08,0,0,0,14.24-17l4.63,16q-4.63,11.42-16.31,18.09T782.71,751.13Zm42.36-1.46V722.48l-1.22-5.1V671q0-14.81-8.64-23t-25.92-8.13a68.46,68.46,0,0,0-22.4,3.77,57.74,57.74,0,0,0-18.5,10.07l-9.74-17.48a70.64,70.64,0,0,1,24-12.26A100.51,100.51,0,0,1,792,619.78q26.53,0,40.9,12.87T847.22,672v77.69Z"/><path class="cls-1" d="M852.06,692.55c-3.38,0-6.37-.14-8.75-.24-1,0-1.94-.09-2.7-.11H795.2V675.66h45.62c1,0,2.06.06,3.22.11,9.77.43,32.69,1.45,42.63-12.06L900,673.52C887.72,690.19,866.36,692.54,852.06,692.55Z"/><path class="cls-1" d="M480.1,715.2a45.58,45.58,0,0,1-16.43,11.65,53.84,53.84,0,0,1-20.81,3.88,52.46,52.46,0,0,1-24.59-5.58,40.84,40.84,0,0,1-16.67-15.66,42.08,42.08,0,0,1-5.21-14.2h40q19.23,0,30.55-5.1t16.31-13.6a36.65,36.65,0,0,0,5-18.93,34,34,0,0,0-5.85-19.55,38.56,38.56,0,0,0-16.67-13.47q-10.83-4.86-25.19-4.86c-.59,0-1.15,0-1.73,0-.42,0-.83,0-1.26,0q-18.5,0-33.22,8.38a60.53,60.53,0,0,0-23.13,23.18q-8.4,14.82-8.4,34t8.65,34a61.22,61.22,0,0,0,24.34,23.31q15.7,8.5,36.39,8.5a76,76,0,0,0,29.09-5.34A56.67,56.67,0,0,0,493,730.25Zm-15-56.57c0,12.8-9.44,19.91-29.7,19.91H395.86A44.88,44.88,0,0,1,401,660.2a38.54,38.54,0,0,1,14.85-15.29,42.42,42.42,0,0,1,20.77-5.41C454.4,639.2,465.07,647.79,465.07,658.63Z"/><path class="cls-1" d="M338.2,706.78,324.87,697c15.19-20.62,44.27-19.34,56.7-18.79,1,0,1.94.09,2.69.1l-.4,16.55c-.85,0-1.87-.07-3-.12C371.06,694.27,348.15,693.26,338.2,706.78Z"/></svg>