<svg id="Camada_1" data-name="Camada 1" xmlns="http://www.w3.org/2000/svg" viewBox="0 0 1000 1000"><defs><style>.cls-1{fill:#3f3e20;}</style></defs><path class="cls-1" d="M900,504.47V203.94H700a279.12,279.12,0,0,0-83.83,12.65c-71,22.31-116.17,92-116.17,92h0s-45-69.6-116.17-92A279.12,279.12,0,0,0,300,203.94H100V801.81H300a278.79,278.79,0,0,1,83.83,12.66C455,836.82,500,901.79,500,901.79h0s39.71-57.15,103.18-82.67c-.33-5.73-.52-11.5-.52-17.31C602.66,637.86,736.05,504.47,900,504.47Z"/><path class="cls-1" d="M827.11,801.81H900V728.43C859.81,728.43,827.11,761.35,827.11,801.81Z"/><path class="cls-1" d="M734.56,801.81h53.22c0-62.15,50.34-112.71,112.22-112.71V636.36C808.77,636.36,734.56,710.58,734.56,801.81Z"/><path class="cls-1" d="M642,801.81q0,3,.08,6a281.75,281.75,0,0,1,53.14-5.86v-.09C695.22,688.89,787.08,597,900,597V543.81C757.74,543.81,642,659.55,642,801.81Z"/></svg>